<?xml version="1.0" encoding="UTF-8"?>
<svg id="Layer_2" data-name="Layer 2" xmlns="http://www.w3.org/2000/svg" viewBox="0 0 24 24">
  <defs>
    <style>
      .cls-1 {
        fill: #4096f3;
      }

      .cls-2 {
        fill: #b0b0b0;
      }

      .cls-3 {
        fill: #6a6a6a;
      }
    </style>
  </defs>
  <g id="Layer_1-2" data-name="Layer 1">
    <g>
      <path class="cls-3" d="M16,12c0,3.51,8,4,8,11v1H0v-1c0-7,8-7.49,8-11S0,8,0,1V0h24v1c0,7-8,7.49-8,11Z"/>
      <path class="cls-2" d="M13,2v20H2.08c.39-2.36,2.18-3.58,4.06-4.86,1.81-1.23,3.86-2.63,3.86-5.14s-2.05-3.91-3.86-5.14c-1.88-1.28-3.67-2.5-4.06-4.86h10.92Z"/>
      <path class="cls-1" d="M21.92,22h-9.92V2h9.92c-.39,2.36-2.18,3.58-4.06,4.86-1.81,1.23-3.86,2.63-3.86,5.14s2.05,3.91,3.86,5.14c1.88,1.28,3.67,2.5,4.06,4.86Z"/>
    </g>
  </g>
</svg>