<?xml version="1.0" encoding="UTF-8"?>
<svg id="Layer_2" data-name="Layer 2" xmlns="http://www.w3.org/2000/svg" viewBox="0 0 24 24">
  <defs>
    <style>
      .cls-1 {
        fill: #4096f3;
      }

      .cls-2 {
        fill: #6a6a6a;
      }
    </style>
  </defs>
  <g id="Layer_1-2" data-name="Layer 1">
    <g>
      <path class="cls-1" d="M12,2v20H2.08c.39-2.36,2.18-3.58,4.06-4.86,1.81-1.23,3.86-2.63,3.86-5.14s-2.05-3.91-3.86-5.14c-1.88-1.28-3.67-2.5-4.06-4.86h9.92Z"/>
      <path class="cls-2" d="M24,1V0H0v1c0,7,8,7.49,8,11S0,16,0,23v1h24v-1c0-7-8-7.49-8-11s8-4,8-11ZM12,22H2.08c.39-2.36,2.18-3.58,4.06-4.86,1.81-1.23,3.86-2.63,3.86-5.14s-2.05-3.91-3.86-5.14c-1.88-1.28-3.67-2.5-4.06-4.86h9.92v20Z"/>
    </g>
  </g>
</svg>